<?xml version="1.0" encoding="utf-8"?>
<!-- Generator: Adobe Illustrator 26.5.0, SVG Export Plug-In . SVG Version: 6.00 Build 0)  -->
<svg version="1.1" id="Layer_1" xmlns="http://www.w3.org/2000/svg" xmlns:xlink="http://www.w3.org/1999/xlink" x="0px" y="0px"
	 viewBox="0 0 1000 1000" style="enable-background:new 0 0 1000 1000;" xml:space="preserve">
<style type="text/css">
	.st0{display:none;fill:#ED2024;}
	.st1{display:none;fill:#C9272C;}
	.st2{fill:#FFFFFF;}
	.st3{display:none;}
	.st4{display:inline;fill:#333333;}
	.st5{font-family:'NexaBold';}
	.st6{font-size:90px;}
	.st7{letter-spacing:5;}
	.st8{font-family:'NexaLight';}
	.st9{letter-spacing:8;}
</style>
<polygon class="st0" points="260,475 500,540 260,415 "/>
<polygon class="st0" points="500,330 500,540 260,415 "/>
<polygon class="st1" points="741,414 500,330 500,540 740,475 "/>
<g>
	<g>
		<polygon class="st2" points="500,328.8 500,863.7 92.9,616.1 92.9,348.6 402.9,469.3 		"/>
	</g>
	<polygon class="st2" points="500,863.7 907.1,614.1 906.3,347.6 594.1,471.4 500,328.8 	"/>
	<path class="st2" d="M500,254.4c-1.5-0.1-3,0.5-4.1,1.7L364.3,406.1l-339.8-106l81.6-163.8l392.5,114.3c0.5,0.1,0.9,0.2,1.4,0.2"/>
	<path class="st2" d="M500,250.8c0.5,0,1-0.1,1.4-0.2l392.8-114l81.2,161.5c0,0,0,0,0,0l-357.6,106L503.8,256.4
		c-1-1.2-2.4-1.9-3.8-2"/>
	<path class="st2" d="M357.1,448.3"/>
</g>
<text transform="matrix(1 0 0 1 193 847)" class="st3"><tspan x="0" y="0" class="st4 st5 st6 st7">EURO</tspan><tspan x="276" y="0" class="st4 st8 st6 st7">SALES</tspan><tspan x="584.2" y="0" class="st4 st8 st6 st9">	</tspan></text>
</svg>
