<?xml version="1.0" encoding="utf-8"?>
<!-- Generator: Adobe Illustrator 26.5.0, SVG Export Plug-In . SVG Version: 6.00 Build 0)  -->
<svg version="1.1" id="Layer_1" xmlns="http://www.w3.org/2000/svg" xmlns:xlink="http://www.w3.org/1999/xlink" x="0px" y="0px"
	 viewBox="0 0 2160 2160" style="enable-background:new 0 0 2160 2160;" xml:space="preserve">
<style type="text/css">
	.st0{display:none;fill:#F2F2F2;}
	.st1{fill:#FFFFFF;}
</style>
<rect x="0" y="0" class="st0" width="2160" height="2160"/>
<g>
	<path class="st1" d="M1729.6,765.2v105.1c-9-1.1-18.5-1.6-28.3-1.6c-142.3,0-200.9,114.7-198.4,216.5
		c2.6,99.2,56.1,205.3,198.4,205.3c9.9,0,19.3-0.5,28.3-1.5v105.9h-312.9l-154.4-236.5L1108,1394.8H832.8v-104.5
		c2.6,0.1,5.2,0.1,7.9,0.1c142.3,0,195.8-106.9,197.5-206.1c1.7-101.8-55.2-215.6-197.5-215.6c-2.7,0-5.3,0-7.9,0.1V765.2h278.7
		l150.9,234.8l150.9-234.8H1729.6z"/>
	<g>
		<path class="st1" d="M564.7,1068.8c56.1-25,78.5-69.9,78.5-116.4c0-39.8-9.5-72.3-26.5-98c-34.9-52.9-101.3-77.1-181.3-77.1H149
			V1381h286.3c79,0,148.3-17.2,188.6-63.7c23.6-27.2,37.3-64.3,37.3-113.9C661.3,1165.4,635.4,1090.3,564.7,1068.8z M261.1,880.8
			h174.2c72.4,0,94.9,46.6,94.9,74.2c0,34.5-23.3,64.7-94.9,64.7H261.1V880.8z M435.3,1274.9H261.1v-155.2h174.2
			c37.4,0,87.7,18.4,106,53.8c3.6,7,6,14.6,6.7,22.9c0.2,2,0.3,4,0.3,6C548.3,1259.4,481.9,1274.9,435.3,1274.9z"/>
		<path class="st1" d="M1142.6,1005.2c-16.5-77-59.1-147.7-127.9-192.1c-46.2-29.9-104.2-47.8-174-47.8c-2.7,0-5.3,0-7.9,0.1
			c-94.2,1.8-166.1,36.6-216.1,89c-57.9,60.7-86.5,145-86.5,229.1c0,30.6,3.7,61,11.1,90.1c1.9,7.7,4.2,15.4,6.7,22.9
			c15.2,45.8,40.4,87.6,76,120.8c49.2,46.1,118.4,75.8,208.8,77.4c2.6,0,5.2,0.1,7.9,0.1c65.6,0,120.1-14.9,164.1-40.2
			c79.3-45.5,124.6-124.5,139.8-209.9c3.6-20.5,5.5-41.3,5.8-62.1C1150.5,1056.6,1148,1030.5,1142.6,1005.2z M840.7,1290.4
			c-2.7,0-5.3,0-7.9-0.1c-136.4-3.8-187.9-107.8-190.5-205.1c-2.5-99.9,53.9-212.2,190.5-216.3c2.6-0.1,5.2-0.1,7.9-0.1
			c142.3,0,199.2,113.8,197.5,215.6C1036.4,1183.5,983,1290.4,840.7,1290.4z"/>
		<path class="st1" d="M1508,1336.7L1404,1181.2l-70.1-104.8l79.4-118.8l78.4-117.4l46.5-69.6v-5.4h-125.1L1262.4,1000l-150.9-234.8
			H986.4v5.4l28.2,42.4l127.9,192.1l47.4,71.2l-45.5,68.3l-139.8,209.9l-24.3,36.6v3.6H1108l154.4-236.5l154.4,236.5h127.6v-3.6
			L1508,1336.7z"/>
		<path class="st1" d="M1729.6,766.2c-9.2-0.7-18.6-1-28.3-1c-89.3,0-159,29.2-209.5,75.1c-35.6,32.3-61.8,72.9-78.4,117.4
			c-15,39.9-22.5,82.9-22.5,125.8c0,33.3,4.3,66.4,13.2,97.8c17.2,61.4,51.5,116.6,103.9,155.5c48.6,36,112.8,58.1,193.4,58.1
			c9.7,0,19.1-0.3,28.3-1c192.4-13.3,279.7-162.2,281.3-311.2C2012.6,932.1,1918.6,780,1729.6,766.2z M1898.9,1084.3
			c-1.6,92.3-48,191.4-169.2,204.6c-9,1-18.4,1.5-28.3,1.5c-142.3,0-195.8-106.1-198.4-205.3c-2.6-101.8,56.1-216.5,198.4-216.5
			c9.8,0,19.3,0.5,28.3,1.6C1851.2,884.4,1900.5,989.6,1898.9,1084.3z"/>
	</g>
</g>
</svg>
