<?xml version="1.0" encoding="utf-8"?>
<!-- Generator: Adobe Illustrator 26.5.0, SVG Export Plug-In . SVG Version: 6.00 Build 0)  -->
<svg version="1.1" xmlns="http://www.w3.org/2000/svg" xmlns:xlink="http://www.w3.org/1999/xlink" x="0px" y="0px"
	 viewBox="0 0 2160 2160" style="enable-background:new 0 0 2160 2160;" xml:space="preserve">
<style type="text/css">
	.st0{display:none;}
</style>
<g id="Layer_2" class="st0">
	
		<image style="display:inline;overflow:visible;" width="435" height="477" xlink:href="../../../apple-replica-starter-files/apple-replica/logo/Group 1.png"  transform="matrix(2.7014 0 0 2.7014 492.455 435.7266)">
	</image>
</g>
<g id="Layer_1">
	<path d="M1561,214.7c-7.7,2.8-15.5,5.7-23.1,8.6c-236.9,90.5-446.5,236.4-612.8,421.8c-6.3,7.1-12.6,14.2-18.8,21.3
		c-3.7,4.3-7.4,8.5-11,12.9c-0.4,0.5-0.9,1-1.3,1.6c-29.8,35.3-58.1,72-84.8,109.8c-0.8,0.3-1.7,0.6-2.5,0.9
		c15.8-28.5,24.9-61.3,24.9-96.2c0-8.3-0.5-16.5-1.5-24.5c-0.2-1.5-0.4-3.1-0.6-4.6c-0.3-1.9-0.6-3.7-0.9-5.6
		c-24.9,0.6-48,9-66.8,22.9c-30,11.3-56.5,29.6-77.6,53c0,0,0,0,0,0c-54.3,36.8-101.7,82.8-140.1,135.9c-5.1,7-10,14.1-14.7,21.4
		c-0.4,0.6-0.8,1.3-1.3,1.9c-34.5,53.1-60.2,112.4-75.1,175.8c-9.1,38.6-14.2,78.7-14.8,120c0,2.8-0.1,5.7-0.1,8.5
		c0,12.4,0.4,24.8,1.2,37c-4,26.9-6,54.4-6,82.4c0,51.1,6.8,100.5,19.7,147.6c-17.9-42.4-59.8-72.1-108.6-72.1
		c-3.4,0-6.9,0.1-10.2,0.5c40.7,62.8,69.1,134.2,82,210.9c4.9,29.1,7.5,59,7.7,89.5c-21.7-21.1-42.3-43.3-61.9-66.4
		c-38-44.9-71.8-93.4-100.8-144.9c-6.1-10.8-12-21.6-17.6-32.6c-36.4-70.7-64-146.7-81.5-226.4c-14.4-65.3-21.9-133.2-21.9-202.8
		c0-45.5,3.2-90.2,9.5-133.9c12.1-85,35.6-166.4,68.9-242.5c11.3-25.9,23.8-51.2,37.3-75.8C285,516.9,319.5,466.5,358.4,420
		C530.8,213.7,790.1,82.5,1080,82.5c166,0,322,43,457.3,118.5C1545.3,205.4,1553.2,210,1561,214.7z"/>
	<path d="M1619.6,348.6c-30.2,17.1-59.7,35.2-88.6,54.2c-64.5,42.5-125.8,89.6-183.3,140.8c-44.1,31.4-86.5,64.9-127,100.6h0
		c-11,9.7-21.9,19.5-32.7,29.5c-5,4.6-9.9,9.3-14.8,13.9c-27.1,23-53.3,47-78.7,71.8c-1.3,1.2-2.5,2.4-3.8,3.7c0,0,0,0,0,0
		c-1.9,1.3-3.9,2.7-5.8,4c-0.1,0.1-0.2,0.1-0.3,0.2c0.5,0.1,1,0.2,1.5,0.3c-20.6,20.4-40.7,41.4-60.2,63
		c-24.3,26.9-47.8,54.6-70.2,83.1c-23.6,25.8-46.3,52.3-68.1,79.5c-14.4,18-28.4,36.2-42,54.9c-4.7,6.4-9.3,12.8-13.9,19.3
		c-14.3,20.1-28.1,40.6-41.4,61.4c-13.4,20.9-26.3,42.1-38.7,63.7c-1.2-0.7-2.5-1.3-3.7-2c-4.9,11.4-9.8,22.8-14.4,34.3
		c-18,33.1-34.9,66.9-50.6,101.3c-42.2,76.9-78.1,157.7-107.1,241.7c-9.3,26.8-17.8,53.8-25.6,81.2c-2.1,1.5-4.2,3.1-6.2,4.7
		c1.2,1.6,2.4,3.2,3.6,4.7c-6.1,21.8-11.7,43.8-16.9,66.1c-2.7,11.6-5.3,23.3-7.7,35v0c-1.2,5.9-2.4,11.8-3.6,17.7
		c-2.1,10.6-4.1,21.2-5.9,31.9c-15.7,89.3-23.9,181.2-23.9,275c0,15.4,0.2,30.7,0.7,45.9c-47.7-57.6-76.3-131.6-76.3-212.2
		c0-2.9,0-5.7,0.1-8.6c2-20.4,4.4-40.7,7.1-60.8c3.3-23.9,7.1-47.6,11.4-71.2c0-0.3,0.1-0.5,0.1-0.8c1.1-6.1,2.3-12.1,3.5-18.1
		c0-0.2,0.1-0.4,0.1-0.5c2.8-14,5.7-28,8.8-41.9c0.1-0.4,0.2-0.8,0.3-1.2c11.8-52,26.1-103.1,42.9-153c0.2-0.7,0.4-1.3,0.7-2
		c8.5-25.1,17.5-49.9,27.2-74.4c0.2-0.5,0.4-1.1,0.6-1.6c9.9-25.1,20.5-49.9,31.7-74.4c0.9-2,1.8-3.9,2.7-5.9v0
		c38.5-83.3,84-162.7,135.7-237.4c0.1-0.1,0.2-0.3,0.3-0.4c9-13.1,18.3-25.9,27.7-38.7c0,0,0-0.1,0.1-0.1
		c17.5-23.6,35.6-46.8,54.3-69.4c0.1-0.1,0.2-0.3,0.3-0.4c7.1-8.6,14.3-17.1,21.6-25.4c0.1-0.1,0.2-0.3,0.4-0.4
		c12.7-14.7,25.7-29.1,38.9-43.3c0-0.1,0.1-0.1,0.2-0.2c22.7-24.3,46.1-47.9,70.3-70.7c0,0,0,0,0,0c1-1.5,2.1-3,3.1-4.4
		c32.5-46.2,67.3-90.6,104.4-133c5.5-6.3,11-12.5,16.6-18.6c30.8-34.1,63-66.8,96.5-98c2.5-2.3,4.9-4.6,7.4-6.8
		c119.1-109.5,255.2-200.9,403.7-270C1561.1,372.7,1590.1,360.2,1619.6,348.6z"/>
	<path d="M1830.8,1588.4c-145.7,193.1-364.2,328.2-614.7,364.5c-44.4,6.5-89.9,9.8-136.1,9.8h-3c-84.8-0.3-166.9-11.8-245-33
		c-51.3-14-100.8-32.2-148.2-54.3c-22.2-10.3-43.9-21.5-65.1-33.5c-0.2-0.1-0.4-0.2-0.6-0.3c-13-7.3-25.8-15-38.4-22.9
		c4.7,0.2,9.5,0.3,14.3,0.3c8,0,16-0.3,23.9-0.9c0.5,0,1.1-0.1,1.6-0.1c21.9-1.7,43.3-5.5,63.8-11.2c7.5-2.1,14.9-4.4,22.2-7
		c42.3-15,80.6-38.3,113.1-68c0.4-0.3,0.8-0.7,1.1-1c33.2-30.6,60.1-67.9,78.7-109.6c3.7-8.4,7.1-16.9,10.1-25.6
		c-8.1-0.6-16.4-0.9-24.7-0.9c-15.2,0-30.2,1-44.9,3c-5.3,0.7-10.5,1.5-15.7,2.5c-47.8,8.8-92.1,27.8-130.4,54.7
		c0.2-1.5,0.3-3,0.5-4.5c36.3-19.1,71.8-39.6,106.3-61.4c8.7-5.5,17.4-11.1,26-16.8c34.7-22.8,68.4-46.9,101-72.3
		c157.7-122.5,291.6-274.2,393.5-447.1c-73.1,18.3-149.6,27.9-228.4,27.9c-5.5,0-11,0-16.5-0.1c111.3-37.2,213.2-94.7,301.5-168
		c9.3-7.7,18.4-15.6,27.4-23.7c10.4-9.3,20.5-18.8,30.5-28.6c1.4-1.4,2.8-2.8,4.2-4.2c83.9-83.3,152.3-182.3,200.1-292.2
		c6.4-14.7,12.5-29.7,18.2-44.8c6.8-18.1,13.1-36.5,18.8-55.2c-54.9,16.1-108.6,35.1-160.9,56.8c0.3-1.9,0.7-3.9,1-5.8v0
		c47.5-31.5,92-67.2,132.9-106.5c0,0,0,0,0,0c17.9-17.2,35.1-35.1,51.6-53.7c0.6-0.2,1.2-0.5,1.8-0.7c0.1-0.6,0.2-1.1,0.3-1.7
		c5.6-6.3,11-12.6,16.4-19.1c7.3-8.7,14.5-17.6,21.4-26.6v0c7.7-9.9,15.1-19.9,22.4-30c30.6-42.8,57.6-88.2,80.8-135.9
		c17.4-35.7,32.5-72.7,45.3-110.8c0.2,8.4,0.3,16.7,0.3,25.1c0,26.7-1.1,53.1-3.3,79.3c-2.8,33.5-7.3,66.5-13.6,98.9
		c-2.7,14-5.7,27.9-9,41.7c-2.4,10-4.9,19.9-7.6,29.7c-4.3,15.5-8.9,30.9-14,46.1c-9,27.2-19.2,53.9-30.6,79.9
		c-0.3,0-0.6,0.1-0.8,0.2c0.2,0.2,0.3,0.4,0.5,0.6c15.4,19,30.1,38.7,44,58.9c6,8.7,11.8,17.5,17.5,26.4
		c15.7,24.5,30.3,49.9,43.7,75.9c51.5,100,85.6,210.4,98.3,327.3c-127.8,19.7-244.1,114.5-292.5,254.1
		C1667.4,1331.5,1715.8,1497.8,1830.8,1588.4z"/>
	<path class="st0" d="M1288.4,780.6c-41.2-14.3-88.7-83.2-156.4-104.8c-88.9-29.6-187.6-7.6-260.8,56.1
		C723.9,859.5,710.3,1119,755,1279.8c22.1,78.4,49.3,167.5,118.9,189.1c67,20.1,105.7-11.3,185.8,16.4
		c79.5,27.6,87.2,78.3,157.7,100.9c71.5,23.5,138.5-24,204-72.6c75.6-55.9,121.2-119.7,123.7-123.3c-1.5-1.2-119.8-101-66.7-259.5
		c44.7-132.4,175.4-157.7,181.5-158.8c-30.5-112.3-122.3-155.6-154.8-169.4C1420.6,765.8,1329,794.7,1288.4,780.6z M1481.2,698.4
		c51.9-31.3,97.5-84.3,111.9-147.6c-53.2-15.9-127.7-5.2-180.8,25.7c-47.3,27.2-98.4,79.6-111.2,142.1
		C1357.6,743.3,1429.3,729.6,1481.2,698.4"/>
	<path d="M2020.1,1022.6c0,212.4-70.4,408.4-189.3,565.8c-115-90.6-163.4-256.8-108.8-414.3c48.4-139.6,164.7-234.4,292.5-254.1
		C2018.2,953.7,2020.1,987.9,2020.1,1022.6z"/>
</g>
</svg>
