<?xml version="1.0" encoding="utf-8"?>
<!-- Generator: Adobe Illustrator 26.5.0, SVG Export Plug-In . SVG Version: 6.00 Build 0)  -->
<svg version="1.1" id="Layer_1" xmlns="http://www.w3.org/2000/svg" xmlns:xlink="http://www.w3.org/1999/xlink" x="0px" y="0px"
	 viewBox="0 0 2160 2160" style="enable-background:new 0 0 2160 2160;" xml:space="preserve">
<style type="text/css">
	.st0{display:none;}
	.st1{fill:#333333;}
	.st2{display:none;fill:#333333;}
	.st3{fill:none;stroke:#333333;stroke-width:80;stroke-miterlimit:10;}
</style>
<g id="Layer_2_00000024696132804353879260000016599064512680203159_" class="st0">
	
		<image style="display:inline;overflow:visible;enable-background:new    ;" width="435" height="477" xlink:href="../../../apple-replica-starter-files/apple-replica/logo/Group 1.png"  transform="matrix(2.7014 0 0 2.7014 492.455 435.7266)">
	</image>
</g>
<g id="Layer_1_00000022545286959053664990000002782949049328308356_">
	<path class="st1" d="M1298.5,600c-3.5,1.3-7,2.6-10.5,3.9c-107.7,41.1-202.9,107.4-278.5,191.7c-2.9,3.2-5.7,6.5-8.5,9.7
		c-1.7,2-3.4,3.9-5,5.9c-0.2,0.2-0.4,0.5-0.6,0.7c-13.5,16-26.4,32.7-38.5,49.9c-0.4,0.1-0.8,0.3-1.1,0.4
		c7.2-13,11.3-27.9,11.3-43.7c0-3.8-0.2-7.5-0.7-11.1c-0.1-0.7-0.2-1.4-0.3-2.1c-0.1-0.9-0.3-1.7-0.4-2.5
		c-11.3,0.3-21.8,4.1-30.4,10.4c-13.6,5.1-25.7,13.5-35.3,24.1l0,0c-24.7,16.7-46.2,37.6-63.7,61.8c-2.3,3.2-4.5,6.4-6.7,9.7
		c-0.2,0.3-0.4,0.6-0.6,0.9c-15.7,24.1-27.4,51.1-34.1,79.9c-4.1,17.5-6.5,35.8-6.7,54.5c0,1.3,0,2.6,0,3.9c0,5.6,0.2,11.3,0.5,16.8
		c-1.8,12.2-2.7,24.7-2.7,37.5c0,23.2,3.1,45.7,9,67.1c-8.1-19.3-27.2-32.8-49.4-32.8c-1.5,0-3.1,0-4.6,0.2
		c18.5,28.5,31.4,61,37.3,95.9c2.2,13.2,3.4,26.8,3.5,40.7c-9.9-9.6-19.2-19.7-28.1-30.2c-17.3-20.4-32.6-42.5-45.8-65.9
		c-2.8-4.9-5.5-9.8-8-14.8c-16.5-32.1-29.1-66.7-37-102.9c-6.5-29.7-10-60.5-10-92.2c0-20.7,1.5-41,4.3-60.9
		c5.5-38.6,16.2-75.6,31.3-110.2c5.1-11.8,10.8-23.3,17-34.5c13.2-24.4,28.9-47.3,46.6-68.4c78.4-93.8,196.2-153.4,328-153.4
		c75.4,0,146.3,19.5,207.8,53.9C1291.4,595.8,1295,597.9,1298.5,600z"/>
	<path class="st1" d="M1325.2,660.9c-13.7,7.8-27.1,16-40.3,24.6c-29.3,19.3-57.2,40.7-83.3,64c-20,14.3-39.3,29.5-57.7,45.7l0,0
		c-5,4.4-10,8.9-14.9,13.4c-2.3,2.1-4.5,4.2-6.7,6.3c-12.3,10.5-24.2,21.4-35.8,32.6c-0.6,0.5-1.1,1.1-1.7,1.7l0,0
		c-0.9,0.6-1.8,1.2-2.6,1.8c0,0-0.1,0-0.1,0.1c0.2,0,0.5,0.1,0.7,0.1c-9.4,9.3-18.5,18.8-27.4,28.6c-11,12.2-21.7,24.8-31.9,37.8
		c-10.7,11.7-21,23.8-31,36.1c-6.5,8.2-12.9,16.5-19.1,25c-2.1,2.9-4.2,5.8-6.3,8.8c-6.5,9.1-12.8,18.5-18.8,27.9
		c-6.1,9.5-12,19.1-17.6,29c-0.5-0.3-1.1-0.6-1.7-0.9c-2.2,5.2-4.5,10.4-6.5,15.6c-8.2,15-15.9,30.4-23,46
		c-19.2,35-35.5,71.7-48.7,109.9c-4.2,12.2-8.1,24.5-11.6,36.9c-1,0.7-1.9,1.4-2.8,2.1c0.5,0.7,1.1,1.5,1.6,2.1
		c-2.8,9.9-5.3,19.9-7.7,30c-1.2,5.3-2.4,10.6-3.5,15.9l0,0c-0.5,2.7-1.1,5.4-1.6,8c-1,4.8-1.9,9.6-2.7,14.5
		c-7.1,40.6-10.9,82.4-10.9,125c0,7,0.1,14,0.3,20.9c-21.7-26.2-34.7-59.8-34.7-96.4c0-1.3,0-2.6,0-3.9c0.9-9.3,2-18.5,3.2-27.6
		c1.5-10.9,3.2-21.6,5.2-32.4c0-0.1,0-0.2,0-0.4c0.5-2.8,1-5.5,1.6-8.2c0-0.1,0-0.2,0-0.2c1.3-6.4,2.6-12.7,4-19
		c0-0.2,0.1-0.4,0.1-0.5c5.4-23.6,11.9-46.9,19.5-69.5c0.1-0.3,0.2-0.6,0.3-0.9c3.9-11.4,8-22.7,12.4-33.8c0.1-0.2,0.2-0.5,0.3-0.7
		c4.5-11.4,9.3-22.7,14.4-33.8c0.4-0.9,0.8-1.8,1.2-2.7l0,0c17.5-37.9,38.2-73.9,61.7-107.9c0,0,0.1-0.1,0.1-0.2
		c4.1-6,8.3-11.8,12.6-17.6c0,0,0,0,0,0c8-10.7,16.2-21.3,24.7-31.5c0,0,0.1-0.1,0.1-0.2c3.2-3.9,6.5-7.8,9.8-11.5
		c0,0,0.1-0.1,0.2-0.2c5.8-6.7,11.7-13.2,17.7-19.7c0,0,0,0,0.1-0.1c10.3-11,21-21.8,32-32.1l0,0c0.5-0.7,1-1.4,1.4-2
		c14.8-21,30.6-41.2,47.4-60.4c2.5-2.9,5-5.7,7.5-8.5c14-15.5,28.6-30.4,43.9-44.5c1.1-1,2.2-2.1,3.4-3.1
		c54.1-49.8,116-91.3,183.5-122.7C1298.6,671.9,1311.8,666.2,1325.2,660.9z"/>
	<path class="st1" d="M1507.2,967.2c0,96.5-32,185.6-86,257.2c-66.2,87.8-165.5,149.2-279.4,165.7c-20.2,3-40.9,4.5-61.9,4.5h-1.4
		c-38.5-0.1-75.9-5.4-111.4-15c-23.3-6.4-45.8-14.6-67.4-24.7c-10.1-4.7-20-9.8-29.6-15.2c-0.1,0-0.2-0.1-0.3-0.1
		c-5.9-3.3-11.7-6.8-17.5-10.4c2.1,0.1,4.3,0.1,6.5,0.1c3.6,0,7.3-0.1,10.9-0.4c0.2,0,0.5,0,0.7,0c10-0.8,19.7-2.5,29-5.1
		c3.4-1,6.8-2,10.1-3.2c19.2-6.8,36.6-17.4,51.4-30.9c0.2-0.1,0.4-0.3,0.5-0.5c15.1-13.9,27.3-30.9,35.8-49.8
		c1.7-3.8,3.2-7.7,4.6-11.6c-3.7-0.3-7.5-0.4-11.2-0.4c-6.9,0-13.7,0.5-20.4,1.4c-2.4,0.3-4.8,0.7-7.1,1.1
		c-21.7,4-41.9,12.6-59.3,24.9c0.1-0.7,0.1-1.4,0.2-2c16.5-8.7,32.6-18,48.3-27.9c4-2.5,7.9-5,11.8-7.6
		c15.8-10.4,31.1-21.3,45.9-32.9c71.7-55.7,132.5-124.6,178.8-203.2c-33.2,8.3-68,12.7-103.8,12.7c-2.5,0-5,0-7.5,0
		c50.6-16.9,96.9-43,137-76.4c4.2-3.5,8.4-7.1,12.5-10.8c4.7-4.2,9.3-8.5,13.9-13c0.6-0.6,1.3-1.3,1.9-1.9
		c38.1-37.9,69.2-82.9,90.9-132.8c2.9-6.7,5.7-13.5,8.3-20.4c3.1-8.2,6-16.6,8.5-25.1c-25,7.3-49.4,16-73.1,25.8
		c0.1-0.9,0.3-1.8,0.5-2.6l0,0c21.6-14.3,41.8-30.5,60.4-48.4l0,0c8.1-7.8,16-16,23.5-24.4c0.3-0.1,0.5-0.2,0.8-0.3
		c0-0.3,0.1-0.5,0.1-0.8c2.5-2.9,5-5.7,7.5-8.7c3.3-4,6.6-8,9.7-12.1l0,0c3.5-4.5,6.9-9,10.2-13.6c13.9-19.5,26.2-40.1,36.7-61.8
		c7.9-16.2,14.8-33,20.6-50.4c0.1,3.8,0.1,7.6,0.1,11.4c0,12.1-0.5,24.2-1.5,36c-1.3,15.2-3.3,30.2-6.2,44.9
		c-1.2,6.4-2.6,12.7-4.1,19c-1.1,4.5-2.2,9-3.5,13.5c-2,7-4,14-6.3,21c-4.1,12.4-8.7,24.5-13.9,36.3c-0.1,0-0.3,0-0.4,0.1
		c0.1,0.1,0.1,0.2,0.2,0.3c7,8.6,13.7,17.6,20,26.8c2.7,4,5.4,8,8,12c7.1,11.1,13.8,22.7,19.9,34.5c23.4,45.4,38.9,95.6,44.7,148.8
		C1506.3,935.9,1507.2,951.5,1507.2,967.2z"/>
	<path class="st2" d="M1174.6,857.3c-18.7-6.5-40.3-37.8-71.1-47.6c-40.4-13.5-85.3-3.5-118.5,25.5c-66.9,58-73.1,175.9-52.8,249
		c10,35.6,22.4,76.1,54,85.9c30.5,9.1,48-5.1,84.4,7.5c36.1,12.5,39.6,35.6,71.7,45.9c32.5,10.7,62.9-10.9,92.7-33
		c34.4-25.4,55.1-54.4,56.2-56c-0.7-0.5-54.4-45.9-30.3-117.9c20.3-60.2,79.7-71.7,82.5-72.2c-13.9-51-55.6-70.7-70.4-77
		C1234.7,850.5,1193.1,863.7,1174.6,857.3z M1262.3,819.9c23.6-14.2,44.3-38.3,50.9-67.1c-24.2-7.2-58-2.4-82.2,11.7
		c-21.5,12.4-44.7,36.2-50.5,64.6C1206.1,840.3,1238.7,834.1,1262.3,819.9"/>
</g>
<path class="st3" d="M1882.4,410.1v1161.2c0,122.5-99.3,221.8-221.8,221.8h-368c-10.9,0-21.3,4.3-29,12L1109,1959.7
	c-16,16-42,16-58,0l-154.6-154.6c-7.7-7.7-18.1-12-29-12h-368c-122.5,0-221.8-99.3-221.8-221.8V410.1
	c0-122.5,99.3-221.8,221.8-221.8h1161.2C1783.1,188.3,1882.4,287.6,1882.4,410.1z"/>
</svg>
