<?xml version="1.0" encoding="utf-8"?>
<!-- Generator: Adobe Illustrator 26.5.0, SVG Export Plug-In . SVG Version: 6.00 Build 0)  -->
<svg version="1.1" xmlns="http://www.w3.org/2000/svg" xmlns:xlink="http://www.w3.org/1999/xlink" x="0px" y="0px"
	 viewBox="0 0 2060 2060" style="enable-background:new 0 0 2060 2060;" xml:space="preserve">
<style type="text/css">
	.st0{display:none;}
	.st1{display:inline;}
	.st2{fill:#FFFFFF;}
	.st3{display:none;fill:#FFFFFF;}
</style>
<g id="Layer_1" class="st0">
	<g class="st1">
		<path d="M866.3,897.8c-0.4-1.5-0.7-2.9-1.1-4.4c-4.3-16.7-9.5-33-15.8-49c-10.9-27.7-24.2-53.4-39.8-77.1
			c-11-16.7-23.1-32.4-36.4-47.1c-2-2.2-4-4.4-6.1-6.6c-28.8-30.4-61.7-55.3-98.9-74.8c-0.9-0.5-1.8-0.9-2.7-1.4
			c-1.3-0.7-2.6-1.3-3.9-2c-6.2-3.1-12.4-6-18.8-8.8c-9.2-4-18.5-7.7-28-10.9c-39.8-13.6-82.4-20.5-127.6-20.5
			c-30.8,0-60.2,3.2-88.4,9.5c-23.1,5.2-45.3,12.5-66.7,21.9c-8.8,3.9-17.3,8-25.7,12.4c-8.6,4.6-17,9.4-25.2,14.6
			c-13.2,8.3-25.8,17.4-37.9,27.2v51c11.8-11.9,24.4-22.9,37.9-33c8.3-6.3,17-12.2,26-17.8c32.8-20.3,68.3-34.3,106.5-42
			c23.5-4.7,47.9-7.1,73.4-7.1c30.9,0,60.3,3.5,88.3,10.6c17.7,4.5,34.9,10.4,51.4,17.8c9.9,4.4,19.6,9.2,28.9,14.5
			c30.7,17.2,58.1,38.8,82.3,64.8c4,4.3,7.9,8.7,11.7,13.2c26,30.9,46.8,66.1,62.3,105.7c17.8,45.4,26.6,94.5,26.6,147.4
			c0,70.3-15.1,133.7-45.2,190c-0.3,0.6-0.6,1.2-0.9,1.8c-18.5,34.1-40.9,63.9-67.4,89.5c-17.6,17-37,32.2-58.1,45.4
			c-22.3,14-45.8,25-70.6,33.1c-34.1,11.1-70.5,16.7-109.3,16.7c-32.1,0-62.7-3.9-91.8-11.8c-16-4.3-31.6-9.8-46.7-16.6
			c-24.3-10.8-46.8-24.1-67.5-39.9c-13.4-10.2-26-21.4-37.9-33.8v51.6c12,10.1,24.7,19.3,37.9,27.7c6,3.8,12,7.5,18.2,10.9
			c11.1,6.2,22.6,12,34.5,17.2c15.6,6.8,31.7,12.6,48.2,17.2c33.9,9.5,69.8,14.2,107.4,14.2c52.5,0,101-9.2,145.5-27.5
			c3-1.2,6-2.5,9-3.8c6.1-2.7,12.1-5.6,17.9-8.5c1.3-0.7,2.6-1.3,3.9-2c30-15.6,57.5-35,82.5-57.9c5.1-4.7,10.1-9.5,15-14.6
			c1.5-1.5,2.9-3,4.4-4.5c3.4-3.6,6.7-7.2,10-10.9c10.3-11.7,19.8-23.9,28.6-36.8c4-5.8,7.8-11.7,11.4-17.7
			c12.5-20.6,23.3-42.6,32.3-65.9c5.6-14.6,10.5-29.5,14.4-44.8c0.4-1.5,0.8-3,1.1-4.4c9-35.7,13.4-73.2,13.4-112.4
			C879,968.9,874.8,932.5,866.3,897.8z"/>
		<path class="st0" d="M182.4,814.8C152,871.3,136.8,935,136.8,1006c0,52.9,8.9,102.2,26.6,148c17.8,45.8,42.4,85.8,74,120.2
			c2,2.1,3.9,4.2,5.9,6.3v51.6c-12-10-23.5-20.8-34.3-32.4c-35.5-37.9-63.1-81.9-82.9-132c-19.7-50.1-29.6-104-29.6-161.6
			c0-58.4,9.7-112.5,29-162.2c19.3-49.7,46.8-93.1,82.3-130.2c11.2-11.7,23.1-22.7,35.5-32.8v51
			C219.5,755.9,199.2,783.5,182.4,814.8z"/>
	</g>
	<g class="st1">
		<path d="M1824,849.4c-19.7-50.1-47.2-93.7-82.3-130.8c-35.1-37.1-76.5-66.1-124.3-87c-47.8-20.9-99.6-31.4-155.7-31.4
			s-107.7,10.5-155.1,31.4c-9.3,4.1-18.3,8.5-27.2,13.2c-1,0.5-2,1.1-3,1.6c-35,19.1-66.3,43.2-94.1,72.1c-5,5.3-9.9,10.7-14.6,16.2
			c-9.6,11.3-18.6,23-26.8,35.4c-16.2,24.2-29.8,50.4-40.8,78.7c-5.9,15.1-10.8,30.5-14.9,46.4c-0.3,1.1-0.6,2.3-0.9,3.4
			c-8.8,35.5-13.2,72.9-13.2,112.4c0,36.2,3.9,70.9,11.7,104.1c0,0.2,0.1,0.3,0.1,0.5l0,0c4.6,19.5,10.5,38.5,17.8,57
			c12.5,31.7,28.1,60.9,46.9,87.7c2.6,3.7,5.2,7.3,7.9,10.9c2.4,3.1,4.8,6.2,7.2,9.3c6.6,8.3,13.6,16.3,20.9,24.1c3,3.2,6,6.2,9,9.3
			c27.4,27.4,58.3,50,92.6,67.8c0.1,0.1,0.3,0.1,0.4,0.2c7.4,3.9,15.1,7.5,22.8,10.9c47.8,20.9,99.6,31.4,155.7,31.4
			c56,0,107.5-10.5,154.5-31.4c47-20.9,88.2-50.1,123.7-87.6c35.5-37.5,62.9-81.3,82.3-131.4c19.3-50.1,29-104,29-161.6
			C1853.6,953.8,1843.8,899.5,1824,849.4z M1767.2,1202.8c-30.8,56.8-72.6,101.8-125.5,134.9c-52.9,33.2-112.9,49.7-179.9,49.7
			c-49.7,0-95.9-9.5-138.5-28.4c-42.6-18.9-79.7-45.6-111.3-79.9c-31.6-34.3-56.2-74.4-74-120.2c-17.8-45.8-26.6-95.1-26.6-148
			c0-71,15.2-134.7,45.6-191.2c30.4-56.4,72-101,124.9-133.8c52.9-32.8,112.8-49.1,179.9-49.1c50.5,0,97.1,9.5,139.7,28.4
			c42.6,18.9,79.7,45.4,111.3,79.3c31.6,33.9,56.2,73.6,74,119c17.8,45.4,26.6,94.5,26.6,147.4C1813.4,1082,1798,1146,1767.2,1202.8
			z"/>
	</g>
	<g class="st1">
		<path d="M961.1,1000.7l-7.3,9.3l-89.4,114l-72.7,92.7l-125.9,160.5l-3.8,4.8c3.3-1.4,6.5-2.8,9.7-4.3
			c31.2-14.6,56.7-34.1,76.5-58.5c5.1-4.7,10.1-9.5,15-14.6c1.5-1.5,2.9-3,4.4-4.5c3.4-3.6,6.7-7.2,10-10.9l28.6-36.8L977,1032.5
			l5.4-7L961.1,1000.7z M1083.9,1116.6L1083.9,1116.6l-83.1-109.3L986,987.7H980L978,985L809.6,767.3l-36.4-47.1
			c-2-2.2-4-4.4-6.1-6.6c-28.8-30.4-61.7-55.3-98.9-74.8c-1-0.6-2-1.2-2.9-1.8c-1.4-0.8-2.8-1.6-4.2-2.4l0.6,0.8l86.7,111.2
			l117.9,151.2l87.5,112.2l8.5,10.8h5.9l8.8,11.7l179.5,239.6c8.7,11.6,18.1,22.8,28.1,33.4c29.6,31.6,63.5,57.3,101.7,77.1
			L1083.9,1116.6z M1183.4,719.6c-35.5,37.1-62.9,80.5-82.3,130.2c-5.9,15.1-10.8,30.5-14.9,46.4l191.3-248.7
			C1242.6,666.6,1211.2,690.6,1183.4,719.6z M980,987.7L978,985l-7.4,9.8l18.9,27.2l11.3-14.8L986,987.7H980z"/>
		<path d="M1279.6,644.8l-2,2.6c-35,19.1-66.3,43.2-94.1,72.1c-35.5,37.1-62.9,80.5-82.3,130.2c-5.9,15.1-10.8,30.5-14.9,46.4
			l-1.9,2.4l-83.5,108.6L986,987.7H980L978,985l163-214.9l26.8-35.4c4.7-5.5,9.6-10.9,14.6-16.2c27.8-29,59.1-53,94.1-72.1
			C1277.5,645.9,1278.5,645.4,1279.6,644.8z"/>
		<path class="st0" d="M1300.8,617.2l-21.3,27.7c-1,0.5-2,1.1-3,1.6c-35,19.1-66.3,43.2-94.1,72.1c-5,5.3-9.9,10.7-14.6,16.2
			l89.2-117.6H1300.8z"/>
		<path class="st0" d="M1312.7,1417.4h-47.3l-108.8-145.2c8.7,11.6,18.1,22.8,28.1,33.4c29.6,31.6,63.5,57.3,101.7,77.1
			L1312.7,1417.4z"/>
		<path class="st0" d="M777.7,1289.2l-99.5,128.2h-43.8l27.8-35.4c3.3-1.4,6.5-2.8,9.7-4.3c31.2-14.6,56.7-34.1,76.5-58.5
			c5.1-4.7,10.1-9.5,15-14.6c1.5-1.5,2.9-3,4.4-4.5C771.1,1296.6,774.4,1292.9,777.7,1289.2z"/>
		<path class="st0" d="M773.2,720.2c-2-2.2-4-4.4-6.1-6.6c-28.8-30.4-61.7-55.3-98.9-74.8c-1-0.6-2-1.2-2.9-1.8
			c-1.4-0.8-2.8-1.6-4.2-2.4l-13.6-17.5h46.2L773.2,720.2z"/>
	</g>
	<g class="st1">
		<path d="M243.3,680.8v51c11.8-11.9,24.4-22.9,37.9-33v-45.2C268,661.9,255.4,671,243.3,680.8z M243.3,680.8v51
			c11.8-11.9,24.4-22.9,37.9-33v-45.2C268,661.9,255.4,671,243.3,680.8z M748.2,1051c-26.7-32.5-62.2-55.7-106.8-69.4
			c32.8-13.8,58.8-33.9,77.8-60.2c23.7-32.8,35.5-72.8,35.5-120.2c0-17.1-1.6-33.2-4.9-48.3c-0.5-2.1-0.9-4.2-1.5-6.3
			c-0.4-1.5-0.8-3-1.2-4.5c-4.6-16.8-11.4-32.2-20.3-46.2c-14.8-23.3-34.4-42.3-58.7-57.1c-1-0.6-2-1.2-2.9-1.8
			c-1.4-0.8-2.8-1.6-4.2-2.4c-4-2.2-8.1-4.3-12.3-6.3c-10.7-5-22-9.3-34-12.7c-25.5-7.3-53.8-11-85-11h-131
			c-23.1,5.2-45.3,12.5-66.7,21.9c-8.8,3.9-17.3,8-25.7,12.4h107.3c23.5-4.7,47.9-7.1,73.4-7.1c30.9,0,60.3,3.5,88.3,10.6
			c31.2,5.1,58,15.9,80.4,32.2c3.5,2.5,6.8,5.2,10.1,8c33.9,29.2,50.9,69.5,50.9,120.8c0,50.5-15,90.5-45,120.1
			c-30,29.6-71,44.4-123.1,44.4H262.2v32h292.4c39.5,0,74.2,7.9,104.2,23.7c30,15.8,53.5,37.5,70.4,65.1
			c17,27.6,25.5,59.6,25.5,95.9c0,39.7-9.8,73.9-29.5,102.6c-8,11.7-17.8,22.5-29.1,32.4c-27.1,23.5-60.2,38.9-99.6,46.1
			c-34.1,11.1-70.5,16.7-109.3,16.7c-32.1,0-62.7-3.9-91.8-11.8h-96c11.1,6.2,22.6,12,34.5,17.2c15.6,6.8,31.7,12.6,48.2,17.2h152.4
			c37,0,70.5-4.4,100.5-13.3c8.1-2.4,16-5.1,23.6-8.2c1.2-0.5,2.3-0.9,3.5-1.4c3.3-1.4,6.5-2.8,9.7-4.3
			c31.2-14.6,56.7-34.1,76.5-58.5c4.8-5.9,9.3-12,13.4-18.5c16-24.9,26-52.9,30-84.1c0.1-1.2,0.3-2.4,0.4-3.6
			c0.6-5.6,1.1-11.3,1.3-17.1c0.2-3.7,0.2-7.5,0.2-11.3C793.8,1132.6,778.6,1088.1,748.2,1051z M281.2,653.6
			c-13.2,8.3-25.8,17.4-37.9,27.2v51c11.8-11.9,24.4-22.9,37.9-33V653.6z M243.3,680.8v51c11.8-11.9,24.4-22.9,37.9-33v-45.2
			C268,661.9,255.4,671,243.3,680.8z M243.3,680.8v51c11.8-11.9,24.4-22.9,37.9-33v-45.2C268,661.9,255.4,671,243.3,680.8z
			 M243.3,680.8v651.1c12,10.1,24.7,19.3,37.9,27.7v-706C268,661.9,255.4,671,243.3,680.8z"/>
		<path class="st0" d="M596.5,1365.8c-34.1,11.1-70.5,16.7-109.3,16.7c-32.1,0-62.7-3.9-91.8-11.8h145.1
			C560.3,1370.6,579,1369,596.5,1365.8z"/>
		<path class="st0" d="M575.4,642.6c-14.3-2.4-29.5-3.5-45.6-3.5h-116c23.5-4.7,47.9-7.1,73.4-7.1
			C518.1,631.9,547.5,635.5,575.4,642.6z"/>
		<path class="st0" d="M382.1,1404.9H243.3v-73c12,10.1,24.7,19.3,37.9,27.7v10.9h18.2c11.1,6.2,22.6,12,34.5,17.2
			C349.5,1394.6,365.6,1400.3,382.1,1404.9z"/>
		<path class="st0" d="M398.8,604.7c-23.1,5.2-45.3,12.5-66.7,21.9c-8.8,3.9-17.3,8-25.7,12.4h-25.2v14.6
			c-13.2,8.3-25.8,17.4-37.9,27.2v-76.1H398.8z"/>
	</g>
</g>
<g id="Layer_2">
	<g>
		<path class="st2" d="M190.1,974.5v24.2h14.4v-24.2H190.1z M558.2,1037.3c-20.2-24.6-47.1-42.2-80.9-52.5
			c24.9-10.5,44.5-25.7,58.9-45.6c17.9-24.8,26.9-55.1,26.9-91c0-13-1.2-25.2-3.7-36.6c-0.3-1.6-0.7-3.2-1.1-4.8
			c-0.3-1.1-0.6-2.3-0.9-3.4c-3.5-12.7-8.6-24.4-15.4-35c-11.2-17.7-26-32.1-44.4-43.2c-0.7-0.5-1.5-0.9-2.2-1.3
			c-1-0.6-2.1-1.2-3.2-1.8c-3-1.7-6.1-3.3-9.3-4.8c-8.1-3.8-16.7-7-25.7-9.6c-19.3-5.6-40.8-8.3-64.4-8.3h-99.2
			c-17.5,3.9-34.3,9.4-50.5,16.6c-6.6,2.9-13.1,6.1-19.4,9.4h81.3c17.8-3.6,36.3-5.4,55.6-5.4c23.4,0,45.7,2.7,66.8,8
			c23.6,3.9,43.9,12,60.9,24.4c2.6,1.9,5.2,4,7.7,6.1c25.7,22.1,38.6,52.6,38.6,91.5c0,38.2-11.4,68.6-34.1,91
			c-22.7,22.4-53.8,33.6-93.2,33.6h-217v24.2h221.4c29.9,0,56.2,6,78.9,17.9c22.7,11.9,40.5,28.4,53.4,49.3
			c12.8,20.9,19.3,45.1,19.3,72.6c0,30.1-7.5,56-22.3,77.7c-6.1,8.9-13.4,17.1-22,24.5c-20.5,17.8-45.6,29.4-75.4,34.9
			c-25.8,8.4-53.4,12.6-82.8,12.6c-24.3,0-47.5-3-69.5-9h-72.7c8.4,4.7,17.1,9.1,26.1,13c11.8,5.2,24,9.5,36.5,13h115.4
			c28,0,53.4-3.4,76.2-10.1c6.2-1.8,12.1-3.9,17.9-6.2c0.9-0.4,1.8-0.7,2.6-1.1c2.5-1,4.9-2.1,7.3-3.2c23.6-11.1,42.9-25.8,58-44.3
			c3.7-4.5,7-9.1,10.2-14c12.1-18.9,19.7-40.1,22.7-63.7c0.1-0.9,0.2-1.8,0.3-2.7c0.5-4.2,0.8-8.5,1-12.9c0.1-2.8,0.2-5.6,0.2-8.5
			C592.7,1099.1,581.2,1065.4,558.2,1037.3z"/>
		<path class="st2" d="M204.5,736.3v238.2h-14.4v24.2h14.4V1271c-10-6.4-19.6-13.4-28.7-21V756.9
			C184.9,749.5,194.5,742.6,204.5,736.3z"/>
		<path class="st3" d="M443.3,1275.7c-25.8,8.4-53.4,12.6-82.8,12.6c-24.3,0-47.5-3-69.5-9h109.9
			C415.9,1279.3,430,1278.1,443.3,1275.7z"/>
		<path class="st3" d="M427.3,727.9c-10.8-1.8-22.3-2.7-34.6-2.7h-87.9c17.8-3.6,36.3-5.4,55.6-5.4
			C383.9,719.9,406.2,722.6,427.3,727.9z"/>
		<path class="st2" d="M280.9,1305.3H175.8V1250c9.1,7.6,18.7,14.6,28.7,21v8.3h13.8c8.4,4.7,17.1,9.1,26.1,13
			C256.2,1297.5,268.4,1301.8,280.9,1305.3z"/>
		<path class="st2" d="M293.5,699.3c-17.5,3.9-34.3,9.4-50.5,16.6c-6.6,2.9-13.1,6.1-19.4,9.4h-19.1v11c-10,6.3-19.6,13.1-28.7,20.6
			v-57.6H293.5z"/>
	</g>
	<g>
		<path class="st2" d="M1130.4,998.7l-5.5,7l-67.7,86.3l-55,70.2l-95.3,121.6l-2.9,3.6c2.5-1,4.9-2.1,7.3-3.2
			c23.6-11.1,42.9-25.8,58-44.3c3.9-3.6,7.7-7.2,11.4-11c1.1-1.1,2.2-2.3,3.3-3.4c2.6-2.7,5.1-5.5,7.6-8.3l21.6-27.9l129.3-166.5
			l4.1-5.3L1130.4,998.7z M1223.4,1086.5L1223.4,1086.5l-62.9-82.8l-11.3-14.8h-4.5l-1.6-2l-127.5-164.9l-27.6-35.6
			c-1.5-1.7-3.1-3.3-4.6-5c-21.8-23-46.7-41.9-74.9-56.7c-0.7-0.5-1.5-0.9-2.2-1.3c-1.1-0.6-2.1-1.2-3.2-1.8l0.5,0.6l65.7,84.2
			l89.3,114.5l66.3,85l6.4,8.2h4.5l6.6,8.9l136,181.5c6.6,8.8,13.7,17.2,21.3,25.3c22.4,23.9,48.1,43.4,77,58.4L1223.4,1086.5z
			 M1298.7,785.8c-26.9,28.1-47.7,61-62.3,98.6c-4.4,11.4-8.2,23.1-11.3,35.1L1370,731.2C1343.5,745.7,1319.8,763.9,1298.7,785.8z
			 M1144.7,988.9l-1.6-2l-5.6,7.4l14.3,20.6l8.6-11.2l-11.3-14.8H1144.7z"/>
		<path class="st2" d="M1371.5,729.2l-1.5,2c-26.5,14.5-50.2,32.7-71.3,54.6c-26.9,28.1-47.7,61-62.3,98.6
			c-4.4,11.4-8.2,23.1-11.3,35.1l-1.4,1.8l-63.3,82.3l-11.3-14.8h-4.5l-1.6-2l123.5-162.8l20.3-26.8c3.6-4.2,7.2-8.3,11.1-12.2
			c21-21.9,44.8-40.2,71.3-54.6C1370,730,1370.8,729.6,1371.5,729.2z"/>
		<path class="st3" d="M1387.7,708.2l-16.1,21c-0.8,0.4-1.5,0.8-2.3,1.2c-26.5,14.5-50.2,32.7-71.3,54.6c-3.8,4-7.5,8.1-11.1,12.2
			l67.6-89.1H1387.7z"/>
		<path class="st3" d="M1396.6,1314.3h-35.9l-82.4-110c6.6,8.8,13.7,17.2,21.3,25.3c22.4,23.9,48.1,43.4,77,58.4L1396.6,1314.3z"/>
		<path class="st3" d="M991.4,1217.2l-75.4,97.1h-33.2l21-26.8c2.5-1,4.9-2.1,7.3-3.2c23.6-11.1,42.9-25.8,58-44.3
			c3.9-3.6,7.7-7.2,11.4-11c1.1-1.1,2.2-2.3,3.3-3.4C986.5,1222.8,989,1220,991.4,1217.2z"/>
		<path class="st3" d="M988.1,786.3c-1.5-1.7-3.1-3.3-4.6-5c-21.8-23-46.7-41.9-74.9-56.7c-0.7-0.5-1.5-0.9-2.2-1.3
			c-1.1-0.6-2.1-1.2-3.2-1.8l-10.3-13.2h35L988.1,786.3z"/>
	</g>
	<g>
		<path class="st2" d="M1827.5,881.5c-15-38-35.7-71-62.3-99.1c-26.6-28.1-58-50.1-94.1-65.9c-36.2-15.8-75.5-23.8-117.9-23.8
			c-42.4,0-81.6,7.9-117.5,23.8c-7,3.1-13.9,6.4-20.6,10c-0.8,0.4-1.5,0.8-2.3,1.2c-26.5,14.5-50.2,32.7-71.3,54.6
			c-3.8,4-7.5,8.1-11.1,12.2c-7.3,8.5-14.1,17.4-20.3,26.8c-12.3,18.3-22.6,38.2-30.9,59.6c-4.4,11.4-8.2,23.1-11.3,35.1
			c-0.2,0.9-0.4,1.7-0.7,2.6c-6.7,26.9-10,55.2-10,85.1c0,27.4,2.9,53.7,8.8,78.9c0,0.1,0,0.2,0.1,0.3l0,0
			c3.5,14.8,8,29.2,13.5,43.2c9.4,24,21.3,46.1,35.5,66.4c1.9,2.8,3.9,5.5,6,8.2c1.8,2.4,3.6,4.7,5.5,7c5,6.3,10.3,12.4,15.8,18.3
			c2.2,2.4,4.5,4.7,6.8,7c20.8,20.7,44.2,37.9,70.2,51.3c0.1,0.1,0.2,0.1,0.3,0.2c5.6,2.9,11.4,5.7,17.3,8.3
			c36.2,15.8,75.5,23.8,117.9,23.8c42.4,0,81.4-7.9,117-23.8c35.6-15.8,66.8-37.9,93.7-66.3c26.9-28.4,47.7-61.6,62.3-99.5
			c14.6-38,22-78.7,22-122.4C1849.9,960.5,1842.5,919.4,1827.5,881.5z M1784.5,1149.1c-23.3,43-55,77.1-95,102.2
			c-40,25.1-85.5,37.7-136.3,37.7c-37.7,0-72.6-7.2-104.9-21.5c-32.3-14.3-60.4-34.5-84.3-60.5c-23.9-26-42.6-56.3-56-91
			c-13.4-34.7-20.2-72-20.2-112.1c0-53.8,11.5-102,34.5-144.8c23-42.7,54.5-76.5,94.6-101.3c40-24.8,85.5-37.2,136.3-37.2
			c38.2,0,73.5,7.2,105.8,21.5c32.3,14.3,60.4,34.4,84.3,60.1c23.9,25.7,42.6,55.7,56,90.1c13.4,34.4,20.2,71.6,20.2,111.6
			C1819.5,1057.6,1807.8,1106,1784.5,1149.1z"/>
	</g>
	<g>
		<path class="st2" d="M1012.2,928.4c-0.3-1.1-0.6-2.2-0.8-3.3c-3.2-12.7-7.2-25-12-37.1c-8.3-21-18.3-40.5-30.1-58.4
			c-8.3-12.6-17.5-24.5-27.6-35.6c-1.5-1.7-3.1-3.3-4.6-5c-21.8-23-46.7-41.9-74.9-56.7c-0.7-0.4-1.3-0.7-2-1c-1-0.5-2-1-2.9-1.5
			c-4.7-2.3-9.4-4.6-14.3-6.7c-7-3.1-14-5.8-21.2-8.3c-30.2-10.3-62.4-15.5-96.7-15.5c-23.3,0-45.6,2.4-67,7.2
			c-17.5,3.9-34.3,9.4-50.5,16.6c-6.6,2.9-13.1,6.1-19.4,9.4c-6.5,3.5-12.9,7.1-19.1,11c-10,6.3-19.6,13.2-28.7,20.6v38.6
			c8.9-9,18.5-17.4,28.7-25c6.3-4.8,12.9-9.2,19.7-13.5c24.8-15.4,51.7-26,80.7-31.8c17.8-3.6,36.3-5.4,55.6-5.4
			c23.4,0,45.7,2.7,66.8,8.1c13.4,3.4,26.4,7.9,39,13.5c7.5,3.3,14.8,7,21.9,11c23.3,13,44,29.4,62.4,49.1c3,3.3,6,6.6,8.9,10
			c19.7,23.4,35.4,50.1,47.2,80.1c13.4,34.4,20.2,71.6,20.2,111.6c0,53.2-11.4,101.2-34.3,143.9c-0.2,0.4-0.5,0.9-0.7,1.3
			c-14,25.8-31,48.4-51,67.8c-13.3,12.9-28,24.4-44,34.4c-16.9,10.6-34.7,18.9-53.5,25c-25.8,8.4-53.4,12.6-82.8,12.6
			c-24.3,0-47.5-3-69.5-9c-12.1-3.3-23.9-7.5-35.4-12.5c-18.4-8.2-35.4-18.2-51.1-30.2c-10.1-7.7-19.7-16.2-28.7-25.6v39
			c9.1,7.6,18.7,14.6,28.7,21c4.5,2.9,9.1,5.6,13.8,8.3c8.4,4.7,17.1,9.1,26.1,13c11.8,5.2,24,9.5,36.5,13
			c25.7,7.2,52.8,10.8,81.4,10.8c39.8,0,76.5-7,110.2-20.9c2.3-0.9,4.5-1.9,6.8-2.9c4.6-2,9.1-4.2,13.6-6.5c1-0.5,2-1,3-1.5
			c22.7-11.8,43.5-26.5,62.4-43.9c3.9-3.6,7.7-7.2,11.4-11c1.1-1.1,2.2-2.3,3.3-3.4c2.6-2.7,5.1-5.5,7.6-8.3
			c7.8-8.9,15-18.1,21.6-27.9c3-4.4,5.9-8.9,8.7-13.4c9.5-15.6,17.6-32.2,24.4-49.9c4.3-11.1,7.9-22.4,10.9-33.9
			c0.3-1.1,0.6-2.2,0.9-3.4c6.8-27,10.2-55.4,10.2-85.1C1021.8,982.3,1018.6,954.7,1012.2,928.4z"/>
		<path class="st3" d="M494.2,865.6c-23,42.7-34.5,91-34.5,144.8c0,40,6.7,77.4,20.2,112.1c13.4,34.7,32.1,65,56,91
			c1.5,1.6,3,3.2,4.5,4.8v39c-9.1-7.6-17.8-15.7-26-24.5c-26.9-28.7-47.8-62-62.8-100c-14.9-38-22.4-78.7-22.4-122.4
			c0-44.2,7.3-85.2,22-122.8c14.6-37.7,35.4-70.5,62.3-98.6c8.5-8.9,17.5-17.2,26.9-24.8v38.6C522.4,820.9,507,841.9,494.2,865.6z"
			/>
	</g>
</g>
</svg>
