<?xml version="1.0" encoding="utf-8"?>
<!-- Generator: Adobe Illustrator 26.5.0, SVG Export Plug-In . SVG Version: 6.00 Build 0)  -->
<svg version="1.0" id="Layer_1" xmlns="http://www.w3.org/2000/svg" xmlns:xlink="http://www.w3.org/1999/xlink" x="0px" y="0px"
	 viewBox="0 0 2160 2160" style="enable-background:new 0 0 2160 2160;" xml:space="preserve">
<style type="text/css">
	.st0{opacity:0.3;fill:#0092FF;}
	.st1{fill:#0092FF;}
	.st2{opacity:0.65;}
	.st3{fill:#FFFFFF;}
</style>
<g>
	<path class="st0" d="M304.6,1080L304.6,1080c0-128.5,104.1-232.6,232.6-232.6l1085.5,0c128.5,0,232.6,104.1,232.6,232.6v0
		c0,128.5-104.1,232.6-232.6,232.6l-1085.5,0C408.8,1312.6,304.6,1208.5,304.6,1080z"/>
	<path class="st1" d="M304.6,1080L304.6,1080c0-128.5,104.1-232.6,232.6-232.6l775.4,0c128.5,0,232.6,104.1,232.6,232.6v0
		c0,128.5-104.1,232.6-232.6,232.6l-775.4,0C408.8,1312.6,304.6,1208.5,304.6,1080z"/>
	<g class="st2">
		<path class="st3" d="M513.8,999.6v-30.2h146.2v30.2H513.8z M569.8,1145.1v-172h34.2v172H569.8z"/>
		<path class="st3" d="M655.3,1145.1v-120.7h32.8v120.7H655.3z M688.1,1078.4l-12.8-8.5c1.5-14.8,5.8-26.5,13-35.1
			c7.2-8.6,17.5-12.9,31-12.9c5.8,0,11.1,1,15.8,2.9c4.7,1.9,8.9,5,12.8,9.4l-20.5,23.5c-1.8-2-4-3.5-6.6-4.5
			c-2.6-1-5.5-1.5-8.9-1.5c-7,0-12.7,2.2-17.1,6.6C690.3,1062.7,688.1,1069.4,688.1,1078.4z"/>
		<path class="st3" d="M813.8,1147.6c-12.7,0-23.9-2.7-33.8-8.1c-9.8-5.4-17.6-12.9-23.4-22.4s-8.6-20.3-8.6-32.5
			c0-12,2.8-22.7,8.4-32.1c5.6-9.4,13.2-16.9,22.9-22.5c9.7-5.6,20.4-8.4,32.2-8.4c11.7,0,22,2.6,30.9,7.9
			c8.9,5.2,15.9,12.4,21,21.5c5.1,9.1,7.6,19.4,7.6,30.9c0,2.2-0.1,4.4-0.4,6.6s-0.7,4.8-1.4,7.6l-101.5,0.2v-24.5l86.2-0.2
			l-13.2,10.2c-0.3-7.2-1.6-13.2-3.9-18c-2.2-4.8-5.5-8.5-9.8-11.1c-4.2-2.6-9.5-3.9-15.6-3.9c-6.5,0-12.2,1.5-17,4.4
			c-4.8,2.9-8.5,7-11.1,12.2c-2.6,5.2-3.9,11.5-3.9,18.6c0,7.3,1.4,13.7,4.1,19.1c2.8,5.4,6.7,9.6,11.9,12.5
			c5.2,2.9,11.2,4.4,18,4.4c6.2,0,11.8-1,16.8-3.1c5-2.1,9.3-5.2,13-9.4l19.2,19.2c-5.8,6.8-13,12-21.4,15.5
			C832.8,1145.9,823.6,1147.6,813.8,1147.6z"/>
		<path class="st3" d="M891.3,1145.1v-120.7h32.8v120.7H891.3z M972.6,1145.1v-69.2c0-7.2-2.2-13-6.8-17.5s-10.3-6.8-17.5-6.8
			c-4.7,0-8.8,1-12.5,3c-3.7,2-6.5,4.8-8.6,8.5c-2.1,3.7-3.1,7.9-3.1,12.8l-12.8-6.5c0-9.5,2-17.8,6.1-24.9
			c4.1-7.1,9.8-12.6,17-16.6s15.5-6,24.6-6c8.8,0,16.8,2.2,23.8,6.6c7,4.4,12.5,10.2,16.5,17.2c4,7.1,6,14.7,6,22.9v76.5H972.6z"/>
		<path class="st3" d="M1082.8,1147.6c-11.2,0-21.2-2.8-30-8.2c-8.8-5.5-15.8-13-20.9-22.5c-5.1-9.5-7.6-20.2-7.6-32
			c0-12,2.5-22.7,7.6-32.2c5.1-9.5,12-17,20.8-22.5s18.8-8.2,30.1-8.2c8.7,0,16.5,1.8,23.4,5.2c6.9,3.5,12.5,8.4,16.8,14.6
			s6.5,13.3,6.9,21.1v43c-0.3,7.8-2.6,14.9-6.8,21.2c-4.2,6.3-9.8,11.3-16.8,15S1091.5,1147.6,1082.8,1147.6z M1088.3,1117.4
			c6.2,0,11.5-1.4,16.1-4.1c4.6-2.8,8.2-6.6,10.8-11.5c2.6-4.9,3.9-10.6,3.9-17.1c0-6.3-1.3-12-3.9-16.9c-2.6-4.9-6.2-8.8-10.8-11.5
			c-4.6-2.8-9.9-4.1-15.9-4.1c-6.2,0-11.5,1.4-16.1,4.2c-4.6,2.8-8.2,6.7-10.8,11.5c-2.6,4.8-3.9,10.4-3.9,16.7
			c0,6.5,1.3,12.2,3.9,17.1c2.6,4.9,6.2,8.8,10.9,11.5C1077.2,1116,1082.5,1117.4,1088.3,1117.4z M1149.8,1145.1h-32.5v-32.5
			l5.2-29.5l-5.5-29v-89.8h32.8V1145.1z"/>
		<path class="st3" d="M1216.8,1146.1l-50.5-121.7h35.5l33.5,93h-12l34.8-93h35.8l-53.8,121.5L1216.8,1146.1z M1183.3,1195.6
			l36.8-77.8l20,28l-22,49.8H1183.3z"/>
		<path class="st3" d="M1315.8,1147.6c-6,0-10.9-2-14.8-6c-3.8-4-5.8-8.9-5.8-14.8c0-5.8,1.9-10.8,5.8-14.8c3.8-4,8.8-6,14.8-6
			c5.8,0,10.7,2,14.5,6c3.8,4,5.8,8.9,5.8,14.8c0,5.8-1.9,10.8-5.8,14.8C1326.5,1145.6,1321.6,1147.6,1315.8,1147.6z"/>
	</g>
</g>
</svg>
